<?xml version="1.0" encoding="utf-8"?>
<svg xmlns="http://www.w3.org/2000/svg" xmlns:xlink="http://www.w3.org/1999/xlink" style="margin: auto; background: rgb(0, 0, 0); display: block; shape-rendering: auto;" width="600px" height="600px" viewBox="0 0 100 100" preserveAspectRatio="xMidYMid">
<g transform="rotate(0 50 50)">
  <rect x="49.5" y="39.5" rx="0.27" ry="0.27" width="1" height="9" fill="#ffffff">
    <animate attributeName="opacity" values="1;0" keyTimes="0;1" dur="1.0526315789473684s" begin="-1.0421052631578946s" repeatCount="indefinite"></animate>
  </rect>
</g><g transform="rotate(3.6 50 50)">
  <rect x="49.5" y="39.5" rx="0.27" ry="0.27" width="1" height="9" fill="#ffffff">
    <animate attributeName="opacity" values="1;0" keyTimes="0;1" dur="1.0526315789473684s" begin="-1.0315789473684212s" repeatCount="indefinite"></animate>
  </rect>
</g><g transform="rotate(7.2 50 50)">
  <rect x="49.5" y="39.5" rx="0.27" ry="0.27" width="1" height="9" fill="#ffffff">
    <animate attributeName="opacity" values="1;0" keyTimes="0;1" dur="1.0526315789473684s" begin="-1.0210526315789474s" repeatCount="indefinite"></animate>
  </rect>
</g><g transform="rotate(10.8 50 50)">
  <rect x="49.5" y="39.5" rx="0.27" ry="0.27" width="1" height="9" fill="#ffffff">
    <animate attributeName="opacity" values="1;0" keyTimes="0;1" dur="1.0526315789473684s" begin="-1.0105263157894737s" repeatCount="indefinite"></animate>
  </rect>
</g><g transform="rotate(14.4 50 50)">
  <rect x="49.5" y="39.5" rx="0.27" ry="0.27" width="1" height="9" fill="#ffffff">
    <animate attributeName="opacity" values="1;0" keyTimes="0;1" dur="1.0526315789473684s" begin="-1s" repeatCount="indefinite"></animate>
  </rect>
</g><g transform="rotate(18 50 50)">
  <rect x="49.5" y="39.5" rx="0.27" ry="0.27" width="1" height="9" fill="#ffffff">
    <animate attributeName="opacity" values="1;0" keyTimes="0;1" dur="1.0526315789473684s" begin="-0.9894736842105263s" repeatCount="indefinite"></animate>
  </rect>
</g><g transform="rotate(21.6 50 50)">
  <rect x="49.5" y="39.5" rx="0.27" ry="0.27" width="1" height="9" fill="#ffffff">
    <animate attributeName="opacity" values="1;0" keyTimes="0;1" dur="1.0526315789473684s" begin="-0.9789473684210527s" repeatCount="indefinite"></animate>
  </rect>
</g><g transform="rotate(25.2 50 50)">
  <rect x="49.5" y="39.5" rx="0.27" ry="0.27" width="1" height="9" fill="#ffffff">
    <animate attributeName="opacity" values="1;0" keyTimes="0;1" dur="1.0526315789473684s" begin="-0.968421052631579s" repeatCount="indefinite"></animate>
  </rect>
</g><g transform="rotate(28.8 50 50)">
  <rect x="49.5" y="39.5" rx="0.27" ry="0.27" width="1" height="9" fill="#ffffff">
    <animate attributeName="opacity" values="1;0" keyTimes="0;1" dur="1.0526315789473684s" begin="-0.9578947368421052s" repeatCount="indefinite"></animate>
  </rect>
</g><g transform="rotate(32.4 50 50)">
  <rect x="49.5" y="39.5" rx="0.27" ry="0.27" width="1" height="9" fill="#ffffff">
    <animate attributeName="opacity" values="1;0" keyTimes="0;1" dur="1.0526315789473684s" begin="-0.9473684210526315s" repeatCount="indefinite"></animate>
  </rect>
</g><g transform="rotate(36 50 50)">
  <rect x="49.5" y="39.5" rx="0.27" ry="0.27" width="1" height="9" fill="#ffffff">
    <animate attributeName="opacity" values="1;0" keyTimes="0;1" dur="1.0526315789473684s" begin="-0.9368421052631579s" repeatCount="indefinite"></animate>
  </rect>
</g><g transform="rotate(39.6 50 50)">
  <rect x="49.5" y="39.5" rx="0.27" ry="0.27" width="1" height="9" fill="#ffffff">
    <animate attributeName="opacity" values="1;0" keyTimes="0;1" dur="1.0526315789473684s" begin="-0.9263157894736842s" repeatCount="indefinite"></animate>
  </rect>
</g><g transform="rotate(43.2 50 50)">
  <rect x="49.5" y="39.5" rx="0.27" ry="0.27" width="1" height="9" fill="#ffffff">
    <animate attributeName="opacity" values="1;0" keyTimes="0;1" dur="1.0526315789473684s" begin="-0.9157894736842105s" repeatCount="indefinite"></animate>
  </rect>
</g><g transform="rotate(46.8 50 50)">
  <rect x="49.5" y="39.5" rx="0.27" ry="0.27" width="1" height="9" fill="#ffffff">
    <animate attributeName="opacity" values="1;0" keyTimes="0;1" dur="1.0526315789473684s" begin="-0.9052631578947369s" repeatCount="indefinite"></animate>
  </rect>
</g><g transform="rotate(50.4 50 50)">
  <rect x="49.5" y="39.5" rx="0.27" ry="0.27" width="1" height="9" fill="#ffffff">
    <animate attributeName="opacity" values="1;0" keyTimes="0;1" dur="1.0526315789473684s" begin="-0.8947368421052632s" repeatCount="indefinite"></animate>
  </rect>
</g><g transform="rotate(54 50 50)">
  <rect x="49.5" y="39.5" rx="0.27" ry="0.27" width="1" height="9" fill="#ffffff">
    <animate attributeName="opacity" values="1;0" keyTimes="0;1" dur="1.0526315789473684s" begin="-0.8842105263157894s" repeatCount="indefinite"></animate>
  </rect>
</g><g transform="rotate(57.6 50 50)">
  <rect x="49.5" y="39.5" rx="0.27" ry="0.27" width="1" height="9" fill="#ffffff">
    <animate attributeName="opacity" values="1;0" keyTimes="0;1" dur="1.0526315789473684s" begin="-0.8736842105263158s" repeatCount="indefinite"></animate>
  </rect>
</g><g transform="rotate(61.2 50 50)">
  <rect x="49.5" y="39.5" rx="0.27" ry="0.27" width="1" height="9" fill="#ffffff">
    <animate attributeName="opacity" values="1;0" keyTimes="0;1" dur="1.0526315789473684s" begin="-0.8631578947368421s" repeatCount="indefinite"></animate>
  </rect>
</g><g transform="rotate(64.8 50 50)">
  <rect x="49.5" y="39.5" rx="0.27" ry="0.27" width="1" height="9" fill="#ffffff">
    <animate attributeName="opacity" values="1;0" keyTimes="0;1" dur="1.0526315789473684s" begin="-0.8526315789473684s" repeatCount="indefinite"></animate>
  </rect>
</g><g transform="rotate(68.4 50 50)">
  <rect x="49.5" y="39.5" rx="0.27" ry="0.27" width="1" height="9" fill="#ffffff">
    <animate attributeName="opacity" values="1;0" keyTimes="0;1" dur="1.0526315789473684s" begin="-0.8421052631578947s" repeatCount="indefinite"></animate>
  </rect>
</g><g transform="rotate(72 50 50)">
  <rect x="49.5" y="39.5" rx="0.27" ry="0.27" width="1" height="9" fill="#ffffff">
    <animate attributeName="opacity" values="1;0" keyTimes="0;1" dur="1.0526315789473684s" begin="-0.8315789473684211s" repeatCount="indefinite"></animate>
  </rect>
</g><g transform="rotate(75.6 50 50)">
  <rect x="49.5" y="39.5" rx="0.27" ry="0.27" width="1" height="9" fill="#ffffff">
    <animate attributeName="opacity" values="1;0" keyTimes="0;1" dur="1.0526315789473684s" begin="-0.8210526315789474s" repeatCount="indefinite"></animate>
  </rect>
</g><g transform="rotate(79.2 50 50)">
  <rect x="49.5" y="39.5" rx="0.27" ry="0.27" width="1" height="9" fill="#ffffff">
    <animate attributeName="opacity" values="1;0" keyTimes="0;1" dur="1.0526315789473684s" begin="-0.8105263157894737s" repeatCount="indefinite"></animate>
  </rect>
</g><g transform="rotate(82.8 50 50)">
  <rect x="49.5" y="39.5" rx="0.27" ry="0.27" width="1" height="9" fill="#ffffff">
    <animate attributeName="opacity" values="1;0" keyTimes="0;1" dur="1.0526315789473684s" begin="-0.8s" repeatCount="indefinite"></animate>
  </rect>
</g><g transform="rotate(86.4 50 50)">
  <rect x="49.5" y="39.5" rx="0.27" ry="0.27" width="1" height="9" fill="#ffffff">
    <animate attributeName="opacity" values="1;0" keyTimes="0;1" dur="1.0526315789473684s" begin="-0.7894736842105263s" repeatCount="indefinite"></animate>
  </rect>
</g><g transform="rotate(90 50 50)">
  <rect x="49.5" y="39.5" rx="0.27" ry="0.27" width="1" height="9" fill="#ffffff">
    <animate attributeName="opacity" values="1;0" keyTimes="0;1" dur="1.0526315789473684s" begin="-0.7789473684210526s" repeatCount="indefinite"></animate>
  </rect>
</g><g transform="rotate(93.6 50 50)">
  <rect x="49.5" y="39.5" rx="0.27" ry="0.27" width="1" height="9" fill="#ffffff">
    <animate attributeName="opacity" values="1;0" keyTimes="0;1" dur="1.0526315789473684s" begin="-0.7684210526315789s" repeatCount="indefinite"></animate>
  </rect>
</g><g transform="rotate(97.2 50 50)">
  <rect x="49.5" y="39.5" rx="0.27" ry="0.27" width="1" height="9" fill="#ffffff">
    <animate attributeName="opacity" values="1;0" keyTimes="0;1" dur="1.0526315789473684s" begin="-0.7578947368421053s" repeatCount="indefinite"></animate>
  </rect>
</g><g transform="rotate(100.8 50 50)">
  <rect x="49.5" y="39.5" rx="0.27" ry="0.27" width="1" height="9" fill="#ffffff">
    <animate attributeName="opacity" values="1;0" keyTimes="0;1" dur="1.0526315789473684s" begin="-0.7473684210526316s" repeatCount="indefinite"></animate>
  </rect>
</g><g transform="rotate(104.4 50 50)">
  <rect x="49.5" y="39.5" rx="0.27" ry="0.27" width="1" height="9" fill="#ffffff">
    <animate attributeName="opacity" values="1;0" keyTimes="0;1" dur="1.0526315789473684s" begin="-0.7368421052631579s" repeatCount="indefinite"></animate>
  </rect>
</g><g transform="rotate(108 50 50)">
  <rect x="49.5" y="39.5" rx="0.27" ry="0.27" width="1" height="9" fill="#ffffff">
    <animate attributeName="opacity" values="1;0" keyTimes="0;1" dur="1.0526315789473684s" begin="-0.7263157894736842s" repeatCount="indefinite"></animate>
  </rect>
</g><g transform="rotate(111.6 50 50)">
  <rect x="49.5" y="39.5" rx="0.27" ry="0.27" width="1" height="9" fill="#ffffff">
    <animate attributeName="opacity" values="1;0" keyTimes="0;1" dur="1.0526315789473684s" begin="-0.7157894736842105s" repeatCount="indefinite"></animate>
  </rect>
</g><g transform="rotate(115.2 50 50)">
  <rect x="49.5" y="39.5" rx="0.27" ry="0.27" width="1" height="9" fill="#ffffff">
    <animate attributeName="opacity" values="1;0" keyTimes="0;1" dur="1.0526315789473684s" begin="-0.7052631578947368s" repeatCount="indefinite"></animate>
  </rect>
</g><g transform="rotate(118.8 50 50)">
  <rect x="49.5" y="39.5" rx="0.27" ry="0.27" width="1" height="9" fill="#ffffff">
    <animate attributeName="opacity" values="1;0" keyTimes="0;1" dur="1.0526315789473684s" begin="-0.6947368421052632s" repeatCount="indefinite"></animate>
  </rect>
</g><g transform="rotate(122.4 50 50)">
  <rect x="49.5" y="39.5" rx="0.27" ry="0.27" width="1" height="9" fill="#ffffff">
    <animate attributeName="opacity" values="1;0" keyTimes="0;1" dur="1.0526315789473684s" begin="-0.6842105263157895s" repeatCount="indefinite"></animate>
  </rect>
</g><g transform="rotate(126 50 50)">
  <rect x="49.5" y="39.5" rx="0.27" ry="0.27" width="1" height="9" fill="#ffffff">
    <animate attributeName="opacity" values="1;0" keyTimes="0;1" dur="1.0526315789473684s" begin="-0.6736842105263158s" repeatCount="indefinite"></animate>
  </rect>
</g><g transform="rotate(129.6 50 50)">
  <rect x="49.5" y="39.5" rx="0.27" ry="0.27" width="1" height="9" fill="#ffffff">
    <animate attributeName="opacity" values="1;0" keyTimes="0;1" dur="1.0526315789473684s" begin="-0.6631578947368421s" repeatCount="indefinite"></animate>
  </rect>
</g><g transform="rotate(133.2 50 50)">
  <rect x="49.5" y="39.5" rx="0.27" ry="0.27" width="1" height="9" fill="#ffffff">
    <animate attributeName="opacity" values="1;0" keyTimes="0;1" dur="1.0526315789473684s" begin="-0.6526315789473685s" repeatCount="indefinite"></animate>
  </rect>
</g><g transform="rotate(136.8 50 50)">
  <rect x="49.5" y="39.5" rx="0.27" ry="0.27" width="1" height="9" fill="#ffffff">
    <animate attributeName="opacity" values="1;0" keyTimes="0;1" dur="1.0526315789473684s" begin="-0.6421052631578947s" repeatCount="indefinite"></animate>
  </rect>
</g><g transform="rotate(140.4 50 50)">
  <rect x="49.5" y="39.5" rx="0.27" ry="0.27" width="1" height="9" fill="#ffffff">
    <animate attributeName="opacity" values="1;0" keyTimes="0;1" dur="1.0526315789473684s" begin="-0.631578947368421s" repeatCount="indefinite"></animate>
  </rect>
</g><g transform="rotate(144 50 50)">
  <rect x="49.5" y="39.5" rx="0.27" ry="0.27" width="1" height="9" fill="#ffffff">
    <animate attributeName="opacity" values="1;0" keyTimes="0;1" dur="1.0526315789473684s" begin="-0.6210526315789474s" repeatCount="indefinite"></animate>
  </rect>
</g><g transform="rotate(147.6 50 50)">
  <rect x="49.5" y="39.5" rx="0.27" ry="0.27" width="1" height="9" fill="#ffffff">
    <animate attributeName="opacity" values="1;0" keyTimes="0;1" dur="1.0526315789473684s" begin="-0.6105263157894737s" repeatCount="indefinite"></animate>
  </rect>
</g><g transform="rotate(151.2 50 50)">
  <rect x="49.5" y="39.5" rx="0.27" ry="0.27" width="1" height="9" fill="#ffffff">
    <animate attributeName="opacity" values="1;0" keyTimes="0;1" dur="1.0526315789473684s" begin="-0.6s" repeatCount="indefinite"></animate>
  </rect>
</g><g transform="rotate(154.8 50 50)">
  <rect x="49.5" y="39.5" rx="0.27" ry="0.27" width="1" height="9" fill="#ffffff">
    <animate attributeName="opacity" values="1;0" keyTimes="0;1" dur="1.0526315789473684s" begin="-0.5894736842105263s" repeatCount="indefinite"></animate>
  </rect>
</g><g transform="rotate(158.4 50 50)">
  <rect x="49.5" y="39.5" rx="0.27" ry="0.27" width="1" height="9" fill="#ffffff">
    <animate attributeName="opacity" values="1;0" keyTimes="0;1" dur="1.0526315789473684s" begin="-0.5789473684210527s" repeatCount="indefinite"></animate>
  </rect>
</g><g transform="rotate(162 50 50)">
  <rect x="49.5" y="39.5" rx="0.27" ry="0.27" width="1" height="9" fill="#ffffff">
    <animate attributeName="opacity" values="1;0" keyTimes="0;1" dur="1.0526315789473684s" begin="-0.5684210526315789s" repeatCount="indefinite"></animate>
  </rect>
</g><g transform="rotate(165.6 50 50)">
  <rect x="49.5" y="39.5" rx="0.27" ry="0.27" width="1" height="9" fill="#ffffff">
    <animate attributeName="opacity" values="1;0" keyTimes="0;1" dur="1.0526315789473684s" begin="-0.5578947368421052s" repeatCount="indefinite"></animate>
  </rect>
</g><g transform="rotate(169.2 50 50)">
  <rect x="49.5" y="39.5" rx="0.27" ry="0.27" width="1" height="9" fill="#ffffff">
    <animate attributeName="opacity" values="1;0" keyTimes="0;1" dur="1.0526315789473684s" begin="-0.5473684210526316s" repeatCount="indefinite"></animate>
  </rect>
</g><g transform="rotate(172.8 50 50)">
  <rect x="49.5" y="39.5" rx="0.27" ry="0.27" width="1" height="9" fill="#ffffff">
    <animate attributeName="opacity" values="1;0" keyTimes="0;1" dur="1.0526315789473684s" begin="-0.5368421052631579s" repeatCount="indefinite"></animate>
  </rect>
</g><g transform="rotate(176.4 50 50)">
  <rect x="49.5" y="39.5" rx="0.27" ry="0.27" width="1" height="9" fill="#ffffff">
    <animate attributeName="opacity" values="1;0" keyTimes="0;1" dur="1.0526315789473684s" begin="-0.5263157894736842s" repeatCount="indefinite"></animate>
  </rect>
</g><g transform="rotate(180 50 50)">
  <rect x="49.5" y="39.5" rx="0.27" ry="0.27" width="1" height="9" fill="#ffffff">
    <animate attributeName="opacity" values="1;0" keyTimes="0;1" dur="1.0526315789473684s" begin="-0.5157894736842106s" repeatCount="indefinite"></animate>
  </rect>
</g><g transform="rotate(183.6 50 50)">
  <rect x="49.5" y="39.5" rx="0.27" ry="0.27" width="1" height="9" fill="#ffffff">
    <animate attributeName="opacity" values="1;0" keyTimes="0;1" dur="1.0526315789473684s" begin="-0.5052631578947369s" repeatCount="indefinite"></animate>
  </rect>
</g><g transform="rotate(187.2 50 50)">
  <rect x="49.5" y="39.5" rx="0.27" ry="0.27" width="1" height="9" fill="#ffffff">
    <animate attributeName="opacity" values="1;0" keyTimes="0;1" dur="1.0526315789473684s" begin="-0.49473684210526314s" repeatCount="indefinite"></animate>
  </rect>
</g><g transform="rotate(190.8 50 50)">
  <rect x="49.5" y="39.5" rx="0.27" ry="0.27" width="1" height="9" fill="#ffffff">
    <animate attributeName="opacity" values="1;0" keyTimes="0;1" dur="1.0526315789473684s" begin="-0.4842105263157895s" repeatCount="indefinite"></animate>
  </rect>
</g><g transform="rotate(194.4 50 50)">
  <rect x="49.5" y="39.5" rx="0.27" ry="0.27" width="1" height="9" fill="#ffffff">
    <animate attributeName="opacity" values="1;0" keyTimes="0;1" dur="1.0526315789473684s" begin="-0.47368421052631576s" repeatCount="indefinite"></animate>
  </rect>
</g><g transform="rotate(198 50 50)">
  <rect x="49.5" y="39.5" rx="0.27" ry="0.27" width="1" height="9" fill="#ffffff">
    <animate attributeName="opacity" values="1;0" keyTimes="0;1" dur="1.0526315789473684s" begin="-0.4631578947368421s" repeatCount="indefinite"></animate>
  </rect>
</g><g transform="rotate(201.6 50 50)">
  <rect x="49.5" y="39.5" rx="0.27" ry="0.27" width="1" height="9" fill="#ffffff">
    <animate attributeName="opacity" values="1;0" keyTimes="0;1" dur="1.0526315789473684s" begin="-0.45263157894736844s" repeatCount="indefinite"></animate>
  </rect>
</g><g transform="rotate(205.2 50 50)">
  <rect x="49.5" y="39.5" rx="0.27" ry="0.27" width="1" height="9" fill="#ffffff">
    <animate attributeName="opacity" values="1;0" keyTimes="0;1" dur="1.0526315789473684s" begin="-0.4421052631578947s" repeatCount="indefinite"></animate>
  </rect>
</g><g transform="rotate(208.8 50 50)">
  <rect x="49.5" y="39.5" rx="0.27" ry="0.27" width="1" height="9" fill="#ffffff">
    <animate attributeName="opacity" values="1;0" keyTimes="0;1" dur="1.0526315789473684s" begin="-0.43157894736842106s" repeatCount="indefinite"></animate>
  </rect>
</g><g transform="rotate(212.4 50 50)">
  <rect x="49.5" y="39.5" rx="0.27" ry="0.27" width="1" height="9" fill="#ffffff">
    <animate attributeName="opacity" values="1;0" keyTimes="0;1" dur="1.0526315789473684s" begin="-0.42105263157894735s" repeatCount="indefinite"></animate>
  </rect>
</g><g transform="rotate(216 50 50)">
  <rect x="49.5" y="39.5" rx="0.27" ry="0.27" width="1" height="9" fill="#ffffff">
    <animate attributeName="opacity" values="1;0" keyTimes="0;1" dur="1.0526315789473684s" begin="-0.4105263157894737s" repeatCount="indefinite"></animate>
  </rect>
</g><g transform="rotate(219.6 50 50)">
  <rect x="49.5" y="39.5" rx="0.27" ry="0.27" width="1" height="9" fill="#ffffff">
    <animate attributeName="opacity" values="1;0" keyTimes="0;1" dur="1.0526315789473684s" begin="-0.4s" repeatCount="indefinite"></animate>
  </rect>
</g><g transform="rotate(223.2 50 50)">
  <rect x="49.5" y="39.5" rx="0.27" ry="0.27" width="1" height="9" fill="#ffffff">
    <animate attributeName="opacity" values="1;0" keyTimes="0;1" dur="1.0526315789473684s" begin="-0.3894736842105263s" repeatCount="indefinite"></animate>
  </rect>
</g><g transform="rotate(226.8 50 50)">
  <rect x="49.5" y="39.5" rx="0.27" ry="0.27" width="1" height="9" fill="#ffffff">
    <animate attributeName="opacity" values="1;0" keyTimes="0;1" dur="1.0526315789473684s" begin="-0.37894736842105264s" repeatCount="indefinite"></animate>
  </rect>
</g><g transform="rotate(230.4 50 50)">
  <rect x="49.5" y="39.5" rx="0.27" ry="0.27" width="1" height="9" fill="#ffffff">
    <animate attributeName="opacity" values="1;0" keyTimes="0;1" dur="1.0526315789473684s" begin="-0.3684210526315789s" repeatCount="indefinite"></animate>
  </rect>
</g><g transform="rotate(234 50 50)">
  <rect x="49.5" y="39.5" rx="0.27" ry="0.27" width="1" height="9" fill="#ffffff">
    <animate attributeName="opacity" values="1;0" keyTimes="0;1" dur="1.0526315789473684s" begin="-0.35789473684210527s" repeatCount="indefinite"></animate>
  </rect>
</g><g transform="rotate(237.6 50 50)">
  <rect x="49.5" y="39.5" rx="0.27" ry="0.27" width="1" height="9" fill="#ffffff">
    <animate attributeName="opacity" values="1;0" keyTimes="0;1" dur="1.0526315789473684s" begin="-0.3473684210526316s" repeatCount="indefinite"></animate>
  </rect>
</g><g transform="rotate(241.2 50 50)">
  <rect x="49.5" y="39.5" rx="0.27" ry="0.27" width="1" height="9" fill="#ffffff">
    <animate attributeName="opacity" values="1;0" keyTimes="0;1" dur="1.0526315789473684s" begin="-0.3368421052631579s" repeatCount="indefinite"></animate>
  </rect>
</g><g transform="rotate(244.8 50 50)">
  <rect x="49.5" y="39.5" rx="0.27" ry="0.27" width="1" height="9" fill="#ffffff">
    <animate attributeName="opacity" values="1;0" keyTimes="0;1" dur="1.0526315789473684s" begin="-0.3263157894736842s" repeatCount="indefinite"></animate>
  </rect>
</g><g transform="rotate(248.4 50 50)">
  <rect x="49.5" y="39.5" rx="0.27" ry="0.27" width="1" height="9" fill="#ffffff">
    <animate attributeName="opacity" values="1;0" keyTimes="0;1" dur="1.0526315789473684s" begin="-0.3157894736842105s" repeatCount="indefinite"></animate>
  </rect>
</g><g transform="rotate(252 50 50)">
  <rect x="49.5" y="39.5" rx="0.27" ry="0.27" width="1" height="9" fill="#ffffff">
    <animate attributeName="opacity" values="1;0" keyTimes="0;1" dur="1.0526315789473684s" begin="-0.30526315789473685s" repeatCount="indefinite"></animate>
  </rect>
</g><g transform="rotate(255.6 50 50)">
  <rect x="49.5" y="39.5" rx="0.27" ry="0.27" width="1" height="9" fill="#ffffff">
    <animate attributeName="opacity" values="1;0" keyTimes="0;1" dur="1.0526315789473684s" begin="-0.29473684210526313s" repeatCount="indefinite"></animate>
  </rect>
</g><g transform="rotate(259.2 50 50)">
  <rect x="49.5" y="39.5" rx="0.27" ry="0.27" width="1" height="9" fill="#ffffff">
    <animate attributeName="opacity" values="1;0" keyTimes="0;1" dur="1.0526315789473684s" begin="-0.28421052631578947s" repeatCount="indefinite"></animate>
  </rect>
</g><g transform="rotate(262.8 50 50)">
  <rect x="49.5" y="39.5" rx="0.27" ry="0.27" width="1" height="9" fill="#ffffff">
    <animate attributeName="opacity" values="1;0" keyTimes="0;1" dur="1.0526315789473684s" begin="-0.2736842105263158s" repeatCount="indefinite"></animate>
  </rect>
</g><g transform="rotate(266.4 50 50)">
  <rect x="49.5" y="39.5" rx="0.27" ry="0.27" width="1" height="9" fill="#ffffff">
    <animate attributeName="opacity" values="1;0" keyTimes="0;1" dur="1.0526315789473684s" begin="-0.2631578947368421s" repeatCount="indefinite"></animate>
  </rect>
</g><g transform="rotate(270 50 50)">
  <rect x="49.5" y="39.5" rx="0.27" ry="0.27" width="1" height="9" fill="#ffffff">
    <animate attributeName="opacity" values="1;0" keyTimes="0;1" dur="1.0526315789473684s" begin="-0.25263157894736843s" repeatCount="indefinite"></animate>
  </rect>
</g><g transform="rotate(273.6 50 50)">
  <rect x="49.5" y="39.5" rx="0.27" ry="0.27" width="1" height="9" fill="#ffffff">
    <animate attributeName="opacity" values="1;0" keyTimes="0;1" dur="1.0526315789473684s" begin="-0.24210526315789474s" repeatCount="indefinite"></animate>
  </rect>
</g><g transform="rotate(277.2 50 50)">
  <rect x="49.5" y="39.5" rx="0.27" ry="0.27" width="1" height="9" fill="#ffffff">
    <animate attributeName="opacity" values="1;0" keyTimes="0;1" dur="1.0526315789473684s" begin="-0.23157894736842105s" repeatCount="indefinite"></animate>
  </rect>
</g><g transform="rotate(280.8 50 50)">
  <rect x="49.5" y="39.5" rx="0.27" ry="0.27" width="1" height="9" fill="#ffffff">
    <animate attributeName="opacity" values="1;0" keyTimes="0;1" dur="1.0526315789473684s" begin="-0.22105263157894736s" repeatCount="indefinite"></animate>
  </rect>
</g><g transform="rotate(284.4 50 50)">
  <rect x="49.5" y="39.5" rx="0.27" ry="0.27" width="1" height="9" fill="#ffffff">
    <animate attributeName="opacity" values="1;0" keyTimes="0;1" dur="1.0526315789473684s" begin="-0.21052631578947367s" repeatCount="indefinite"></animate>
  </rect>
</g><g transform="rotate(288 50 50)">
  <rect x="49.5" y="39.5" rx="0.27" ry="0.27" width="1" height="9" fill="#ffffff">
    <animate attributeName="opacity" values="1;0" keyTimes="0;1" dur="1.0526315789473684s" begin="-0.2s" repeatCount="indefinite"></animate>
  </rect>
</g><g transform="rotate(291.6 50 50)">
  <rect x="49.5" y="39.5" rx="0.27" ry="0.27" width="1" height="9" fill="#ffffff">
    <animate attributeName="opacity" values="1;0" keyTimes="0;1" dur="1.0526315789473684s" begin="-0.18947368421052632s" repeatCount="indefinite"></animate>
  </rect>
</g><g transform="rotate(295.2 50 50)">
  <rect x="49.5" y="39.5" rx="0.27" ry="0.27" width="1" height="9" fill="#ffffff">
    <animate attributeName="opacity" values="1;0" keyTimes="0;1" dur="1.0526315789473684s" begin="-0.17894736842105263s" repeatCount="indefinite"></animate>
  </rect>
</g><g transform="rotate(298.8 50 50)">
  <rect x="49.5" y="39.5" rx="0.27" ry="0.27" width="1" height="9" fill="#ffffff">
    <animate attributeName="opacity" values="1;0" keyTimes="0;1" dur="1.0526315789473684s" begin="-0.16842105263157894s" repeatCount="indefinite"></animate>
  </rect>
</g><g transform="rotate(302.4 50 50)">
  <rect x="49.5" y="39.5" rx="0.27" ry="0.27" width="1" height="9" fill="#ffffff">
    <animate attributeName="opacity" values="1;0" keyTimes="0;1" dur="1.0526315789473684s" begin="-0.15789473684210525s" repeatCount="indefinite"></animate>
  </rect>
</g><g transform="rotate(306 50 50)">
  <rect x="49.5" y="39.5" rx="0.27" ry="0.27" width="1" height="9" fill="#ffffff">
    <animate attributeName="opacity" values="1;0" keyTimes="0;1" dur="1.0526315789473684s" begin="-0.14736842105263157s" repeatCount="indefinite"></animate>
  </rect>
</g><g transform="rotate(309.6 50 50)">
  <rect x="49.5" y="39.5" rx="0.27" ry="0.27" width="1" height="9" fill="#ffffff">
    <animate attributeName="opacity" values="1;0" keyTimes="0;1" dur="1.0526315789473684s" begin="-0.1368421052631579s" repeatCount="indefinite"></animate>
  </rect>
</g><g transform="rotate(313.2 50 50)">
  <rect x="49.5" y="39.5" rx="0.27" ry="0.27" width="1" height="9" fill="#ffffff">
    <animate attributeName="opacity" values="1;0" keyTimes="0;1" dur="1.0526315789473684s" begin="-0.12631578947368421s" repeatCount="indefinite"></animate>
  </rect>
</g><g transform="rotate(316.8 50 50)">
  <rect x="49.5" y="39.5" rx="0.27" ry="0.27" width="1" height="9" fill="#ffffff">
    <animate attributeName="opacity" values="1;0" keyTimes="0;1" dur="1.0526315789473684s" begin="-0.11578947368421053s" repeatCount="indefinite"></animate>
  </rect>
</g><g transform="rotate(320.4 50 50)">
  <rect x="49.5" y="39.5" rx="0.27" ry="0.27" width="1" height="9" fill="#ffffff">
    <animate attributeName="opacity" values="1;0" keyTimes="0;1" dur="1.0526315789473684s" begin="-0.10526315789473684s" repeatCount="indefinite"></animate>
  </rect>
</g><g transform="rotate(324 50 50)">
  <rect x="49.5" y="39.5" rx="0.27" ry="0.27" width="1" height="9" fill="#ffffff">
    <animate attributeName="opacity" values="1;0" keyTimes="0;1" dur="1.0526315789473684s" begin="-0.09473684210526316s" repeatCount="indefinite"></animate>
  </rect>
</g><g transform="rotate(327.6 50 50)">
  <rect x="49.5" y="39.5" rx="0.27" ry="0.27" width="1" height="9" fill="#ffffff">
    <animate attributeName="opacity" values="1;0" keyTimes="0;1" dur="1.0526315789473684s" begin="-0.08421052631578947s" repeatCount="indefinite"></animate>
  </rect>
</g><g transform="rotate(331.2 50 50)">
  <rect x="49.5" y="39.5" rx="0.27" ry="0.27" width="1" height="9" fill="#ffffff">
    <animate attributeName="opacity" values="1;0" keyTimes="0;1" dur="1.0526315789473684s" begin="-0.07368421052631578s" repeatCount="indefinite"></animate>
  </rect>
</g><g transform="rotate(334.8 50 50)">
  <rect x="49.5" y="39.5" rx="0.27" ry="0.27" width="1" height="9" fill="#ffffff">
    <animate attributeName="opacity" values="1;0" keyTimes="0;1" dur="1.0526315789473684s" begin="-0.06315789473684211s" repeatCount="indefinite"></animate>
  </rect>
</g><g transform="rotate(338.4 50 50)">
  <rect x="49.5" y="39.5" rx="0.27" ry="0.27" width="1" height="9" fill="#ffffff">
    <animate attributeName="opacity" values="1;0" keyTimes="0;1" dur="1.0526315789473684s" begin="-0.05263157894736842s" repeatCount="indefinite"></animate>
  </rect>
</g><g transform="rotate(342 50 50)">
  <rect x="49.5" y="39.5" rx="0.27" ry="0.27" width="1" height="9" fill="#ffffff">
    <animate attributeName="opacity" values="1;0" keyTimes="0;1" dur="1.0526315789473684s" begin="-0.042105263157894736s" repeatCount="indefinite"></animate>
  </rect>
</g><g transform="rotate(345.6 50 50)">
  <rect x="49.5" y="39.5" rx="0.27" ry="0.27" width="1" height="9" fill="#ffffff">
    <animate attributeName="opacity" values="1;0" keyTimes="0;1" dur="1.0526315789473684s" begin="-0.031578947368421054s" repeatCount="indefinite"></animate>
  </rect>
</g><g transform="rotate(349.2 50 50)">
  <rect x="49.5" y="39.5" rx="0.27" ry="0.27" width="1" height="9" fill="#ffffff">
    <animate attributeName="opacity" values="1;0" keyTimes="0;1" dur="1.0526315789473684s" begin="-0.021052631578947368s" repeatCount="indefinite"></animate>
  </rect>
</g><g transform="rotate(352.8 50 50)">
  <rect x="49.5" y="39.5" rx="0.27" ry="0.27" width="1" height="9" fill="#ffffff">
    <animate attributeName="opacity" values="1;0" keyTimes="0;1" dur="1.0526315789473684s" begin="-0.010526315789473684s" repeatCount="indefinite"></animate>
  </rect>
</g><g transform="rotate(356.4 50 50)">
  <rect x="49.5" y="39.5" rx="0.27" ry="0.27" width="1" height="9" fill="#ffffff">
    <animate attributeName="opacity" values="1;0" keyTimes="0;1" dur="1.0526315789473684s" begin="0s" repeatCount="indefinite"></animate>
  </rect>
</g>
<!-- [ldio] generated by https://loading.io/ --></svg>